<svg height="511pt" viewBox="0 -24 511.99992 511" width="511pt" xmlns="http://www.w3.org/2000/svg"><path d="m365.773438 195.785156c-1.976563 0-3.953126-.585937-5.65625-1.753906-6.375-4.375-38.554688-26.78125-46.152344-38.3125-3.359375-5.09375-7.753906-13.195312-7.140625-24.679688 1.023437-19.101562 16.488281-34.0625 35.210937-34.0625 10.09375 0 18.242188 5.042969 23.808594 9.996094 5.636719-4.933594 13.804688-9.996094 23.570312-9.996094 18.722657 0 34.191407 14.960938 35.210938 34.0625.617188 11.457032-3.773438 19.566407-7.132812 24.671876-7.644532 11.625-39.710938 33.960937-46.0625 38.320312-1.703126 1.167969-3.683594 1.753906-5.65625 1.753906zm-23.738282-78.820312c-7.960937 0-14.800781 6.792968-15.25 15.140625-.234375 4.429687.886719 8.085937 3.871094 12.613281 3.527344 5.355469 21.066406 18.90625 35.113281 28.878906 13.996094-9.941406 31.472657-23.472656 35.023438-28.867187 2.988281-4.546875 4.109375-8.203125 3.875-12.625-.449219-8.347657-7.289063-15.140625-15.253907-15.140625-6.046874 0-13.183593 7.25-15.511718 10.558594-1.875 2.660156-4.925782 4.242187-8.175782 4.242187-.042968 0-.089843 0-.132812 0-3.300781-.046875-6.367188-1.71875-8.195312-4.46875-1.796876-2.644531-8.554688-10.332031-15.363282-10.332031zm0 0"/><path d="m209.292969 464.078125c-2.628907 0-5.199219-1.070313-7.066407-2.929687-.460937-.457032-.878906-.976563-1.238281-1.519532-.359375-.546875-.671875-1.128906-.921875-1.726562-.25-.601563-.4375-1.230469-.570312-1.871094-.128906-.640625-.199219-1.296875-.199219-1.949219 0-.65625.070313-1.308593.199219-1.957031.132812-.640625.320312-1.261719.570312-1.871094.25-.597656.5625-1.179687.921875-1.71875.359375-.550781.777344-1.058594 1.238281-1.527344.460938-.460937.96875-.871093 1.519532-1.238281.539062-.359375 1.117187-.671875 1.730468-.921875.597657-.25 1.226563-.4375 1.867188-.570312 1.289062-.257813 2.617188-.257813 3.90625 0 .632812.132812 1.261719.320312 1.871094.570312.597656.25 1.179687.5625 1.71875.921875.550781.367188 1.058594.777344 1.519531 1.238281.460937.46875.878906.980469 1.25 1.527344.359375.539063.667969 1.121094.917969 1.71875.25.601563.441406 1.230469.570312 1.871094.128906.648438.191406 1.300781.191406 1.957031 0 .652344-.0625 1.3125-.191406 1.949219-.128906.640625-.320312 1.269531-.570312 1.871094-.25.597656-.558594 1.179687-.917969 1.726562-.371094.539063-.789063 1.0625-1.25 1.519532-1.859375 1.859374-4.4375 2.929687-7.066406 2.929687zm0 0"/><path d="m78.859375 186.703125c-4.828125 0-9.074219-3.507813-9.855469-8.425781-.84375-5.292969 2.632813-10.277344 7.828125-11.355469.078125-.40625.179688-.808594.3125-1.210937 1.710938-5.246094 7.355469-8.113282 12.601563-6.402344l13.703125 4.472656c4.390625 1.429688 7.230469 5.683594 6.867187 10.285156-.363281 4.601563-3.832031 8.359375-8.390625 9.085938l-21.480469 3.421875c-.53125.085937-1.0625.128906-1.585937.128906zm0 0"/><path d="m190.800781 186.703125c-.523437 0-1.050781-.042969-1.585937-.128906l-21.476563-3.421875c-4.558593-.726563-8.027343-4.484375-8.390625-9.085938-.363281-4.605468 2.476563-8.855468 6.867188-10.289062l13.703125-4.46875c5.246093-1.714844 10.886719 1.15625 12.601562 6.402344.128907.402343.234375.804687.3125 1.207031 5.195313 1.082031 8.671875 6.066406 7.828125 11.359375-.785156 4.921875-5.03125 8.425781-9.859375 8.425781zm0 0"/><path d="m134.832031 251.324219c-14.378906 0-27.421875-8.5-33.234375-21.648438-2.234375-5.050781.050782-10.953125 5.101563-13.183593 5.046875-2.230469 10.949219.054687 13.179687 5.101562 2.617188 5.917969 8.484375 9.742188 14.953125 9.742188 6.464844 0 12.335938-3.824219 14.953125-9.742188 2.230469-5.050781 8.132813-7.332031 13.179688-5.101562 5.050781 2.230468 7.335937 8.132812 5.101562 13.183593-5.8125 13.148438-18.859375 21.648438-33.234375 21.648438zm0 0"/><path d="m507.851562 264.535156c-.714843-2.367187-1.765624-4.609375-3.125-6.667968-.003906-.003907-.003906-.007813-.007812-.011719 0 0 0 0 0-.003907h-.003906c-4.128906-6.234374-10.75-10.316406-18.167969-11.191406-24.804687-2.917968-49.308594 4.320313-68.203125 19.960938-16.066406-6.097656-33.878906-9.492188-52.617188-9.492188-18.738281 0-36.550781 3.394532-52.617187 9.492188-12.53125-10.375-27.527344-17.050782-43.449219-19.519532v-111.773437c0-74.34375-60.484375-134.828125-134.832031-134.828125-74.34375 0-134.828125 60.484375-134.828125 134.828125v133.582031c0 15.976563 6.90625 30.371094 17.886719 40.355469-10.734375 6.742187-17.886719 18.6875-17.886719 32.273437v112.539063c0 5.519531 4.476562 9.996094 9.996094 9.996094h144.292968c5.519532 0 9.992188-4.476563 9.992188-9.996094 0-5.515625-4.472656-9.992187-9.992188-9.992187h-134.300781v-102.546876c0-9.972656 8.113281-18.085937 18.085938-18.085937h43.367187l46.320313 46.320313c1.875 1.875 4.417969 2.925781 7.070312 2.925781 2.648438 0 5.191407-1.050781 7.066407-2.925781l46.320312-46.320313h37.070312c3.066407 7.777344 7.546876 15.703125 13.894532 23.5-1.195313 5.90625-1.816406 11.972656-1.816406 18.160156 0 16.957031 4.71875 32.535157 13.289062 46.070313v42.894531c0 5.519531 4.476562 9.996094 9.996094 9.996094 5.519531 0 9.996094-4.476563 9.996094-9.996094v-20.386719c22.933593 19.023438 56.222656 30.382813 95.078124 30.382813 74.375 0 128.359376-41.621094 128.359376-98.960938 0-6.1875-.625-12.253906-1.816407-18.164062 25.570313-31.402344 20.835938-64.925781 15.582031-82.414063zm-41.082031 34.054688.164063-.164063c7.675781-7.679687 15.746094-14.410156 23.769531-19.875 2.191406 11.863281 2.359375 28.261719-6.59375 44.828125-4.46875-8.9375-10.320313-17.261718-17.339844-24.789062zm6.992188-32.5c-7.140625 5.324218-14.207031 11.449218-20.960938 18.199218-.304687.304688-.59375.597657-.871093.878907-4.125-3.148438-8.488282-6.074219-13.070313-8.753907 12.632813-7.828124 25.457031-10.027343 34.902344-10.324218zm-192.859375 18.042968c-6.667969-6.652343-13.613282-12.675781-20.628906-17.917968 9.128906.601562 20.804687 3.0625 32.320312 10.199218-4.074219 2.382813-7.976562 4.964844-11.691406 7.71875zm-118.394532 19.332032-.175781-12.796875c8.980469-2.214844 21.648438-6.425781 33.386719-13.28125 24.425781-14.269531 37.339844-35.078125 37.339844-60.175781v-77.335938c0-15.957031-12.980469-28.933594-28.9375-28.933594-5.519532 0-9.996094 4.476563-9.996094 9.992188 0 5.519531 4.476562 9.996094 9.996094 9.996094 4.933594 0 8.945312 4.011718 8.945312 8.945312v77.335938c0 45.785156-61.546875 55.308593-62.167968 55.390624-5.015626.671876-8.738282 4.984376-8.667969 10.042969l.421875 30.949219c.074218 5.46875 4.527344 9.859375 9.996094 9.859375h7.300781l-25.117188 25.117187-25.121093-25.117187h7.300781c5.46875 0 9.921875-4.394531 9.996093-9.859375l.421876-30.945312c.070312-5.058594-3.652344-9.375-8.664063-10.042969-.625-.085938-62.171875-9.617188-62.171875-55.394531v-77.335938c0-4.933594 4.011719-8.945312 8.945312-8.945312h83.992188c2.847656 0 5.558594-1.210938 7.453125-3.335938l22.277344-24.925781c3.675781-4.117188 3.320312-10.433594-.796875-14.113281-4.113282-3.679688-10.433594-3.324219-14.109375.792968l-19.296875 21.59375h-79.519532c-15.957031 0-28.9375 12.976563-28.9375 28.933594v77.335938c0 24.992187 12.910157 45.765624 37.328126 60.074218 12.53125 7.347656 25.253906 11.328125 33.398437 13.339844l-.175781 12.839844h-52.613282c-19.050781 0-34.550781-15.5-34.550781-34.554688v-133.582031c0-63.320313 51.519531-114.839844 114.84375-114.839844s114.839844 51.519531 114.839844 114.839844v110.898437c-1.585937.105469-3.179687.25-4.769531.4375-6.707032.789063-12.929688 4.3125-17.074219 9.664063-.011719.015625-.023437.03125-.035156.042969-1.890625 2.453125-3.300781 5.203125-4.191407 8.167968-2.800781 9.328126-5.457031 23.222657-3.441406 38.925782zm78.515626-26.320313c8.339843 5.464844 16.871093 12.398438 24.824218 20.214844-7.535156 7.84375-13.792968 16.59375-18.503906 26.019531-9.316406-17.230468-8.757812-34.285156-6.320312-46.234375zm124.703124 166.941407c-62.792968 0-108.371093-33.214844-108.371093-78.972657 0-48.519531 48.617187-87.996093 108.371093-87.996093 59.753907 0 108.367188 39.476562 108.367188 87.996093 0 45.761719-45.574219 78.972657-108.367188 78.972657zm0 0"/><path d="m390.445312 407.886719c-5.824218 0-10.871093-3.402344-13.257812-8.324219 12.898438-3.21875 21.664062-11.835938 21.664062-22.511719 0-13.609375-14.242187-23.875-33.125-23.875-18.886718 0-33.125 10.265625-33.125 23.875 0 10.675781 8.765626 19.296875 21.664063 22.511719-2.382813 4.921875-7.433594 8.324219-13.261719 8.324219-5.519531 0-9.992187 4.476562-9.992187 9.996093 0 5.519532 4.472656 9.996094 9.992187 9.996094 9.667969 0 18.421875-3.972656 24.722656-10.367187 6.300782 6.394531 15.054688 10.367187 24.71875 10.367187 5.519532 0 9.996094-4.476562 9.996094-9.996094 0-5.519531-4.476562-9.996093-9.996094-9.996093zm-37.59375-30.835938c1.328126-1.441406 5.8125-3.882812 12.875-3.882812s11.546876 2.441406 12.875 3.882812c-1.328124 1.4375-5.8125 3.882813-12.875 3.882813s-11.546874-2.445313-12.875-3.882813zm0 0"/><path d="m408.675781 344.414062c-5.519531 0-9.996093-4.472656-9.996093-9.992187v-14.957031c0-5.519532 4.476562-9.996094 9.996093-9.996094s9.996094 4.476562 9.996094 9.996094v14.957031c0 5.519531-4.476563 9.992187-9.996094 9.992187zm0 0"/><path d="m322.777344 344.414062c-5.519532 0-9.996094-4.472656-9.996094-9.992187v-14.957031c0-5.519532 4.476562-9.996094 9.996094-9.996094 5.519531 0 9.996094 4.476562 9.996094 9.996094v14.957031c0 5.519531-4.476563 9.992187-9.996094 9.992187zm0 0"/><path d="m440.769531 384.472656h-23.257812c-5.519531 0-9.996094-4.476562-9.996094-9.992187 0-5.519531 4.476563-9.996094 9.996094-9.996094h23.257812c5.519531 0 9.996094 4.476563 9.996094 9.996094s-4.476563 9.992187-9.996094 9.992187zm0 0"/><path d="m428.59375 410.929688h-11.082031c-5.523438 0-9.996094-4.472657-9.996094-9.992188s4.472656-9.996094 9.996094-9.996094h11.082031c5.519531 0 9.996094 4.476563 9.996094 9.996094s-4.472656 9.992188-9.996094 9.992188zm0 0"/><path d="m313.941406 384.472656h-23.257812c-5.519532 0-9.996094-4.476562-9.996094-9.992187 0-5.519531 4.476562-9.996094 9.996094-9.996094h23.257812c5.519532 0 9.996094 4.476563 9.996094 9.996094s-4.476562 9.992187-9.996094 9.992187zm0 0"/><path d="m313.941406 410.929688h-11.082031c-5.519531 0-9.996094-4.472657-9.996094-9.992188s4.476563-9.996094 9.996094-9.996094h11.082031c5.519532 0 9.996094 4.476563 9.996094 9.996094s-4.476562 9.992188-9.996094 9.992188zm0 0"/></svg>