<?xml version="1.0" encoding="iso-8859-1"?>
<!-- Generator: Adobe Illustrator 19.0.0, SVG Export Plug-In . SVG Version: 6.00 Build 0)  -->
<svg version="1.1" id="Capa_1" xmlns="http://www.w3.org/2000/svg" xmlns:xlink="http://www.w3.org/1999/xlink" x="0px" y="0px"
	 viewBox="0 0 512 512" style="enable-background:new 0 0 512 512;" xml:space="preserve">
<g>
	<g>
		<circle cx="226" cy="285" r="15"/>
	</g>
</g>
<g>
	<g>
		<circle cx="196" cy="345" r="15"/>
	</g>
</g>
<g>
	<g>
		<path d="M346,0c-53.278,0-96.753,39.464-103.938,90h-45.765l-15.588-77.942C179.307,5.047,173.15,0,166,0H76
			c-8.284,0-15,6.716-15,15s6.716,15,15,15h77.703l12,60H91c-4.445,0-8.661,1.971-11.511,5.383c-2.85,3.411-4.04,7.911-3.25,12.285
			l59.112,327.088l-27.768,55.536c-2.325,4.65-2.076,10.172,0.657,14.594c2.733,4.422,7.561,7.114,12.76,7.114h180
			c5.198,0,10.026-2.692,12.76-7.114c2.734-4.422,2.981-9.944,0.656-14.594l-27.768-55.535l40.909-226.365
			c6.163,1.048,12.349,1.588,18.5,1.587C403.784,209.978,451,163.244,451,105C451,46.97,404.039,0,346,0z M108.954,120h62.749
			l18.025,90.127c-4.549-1.39-8.484-4.302-11.248-8.448c-8.803-13.204-22.913-21.44-38.711-22.597
			c-6.804-0.498-13.473,0.34-19.709,2.371L108.954,120z M145.271,482l15-30H261.73l15,30H145.271z M258.468,422h-94.936
			l-38.006-210.3c3.579-2.049,7.745-3.012,12.052-2.698c3.82,0.28,10.97,1.862,15.94,9.318
			c9.491,14.236,25.372,22.735,42.481,22.735s32.99-8.499,42.481-22.735c3.972-5.959,10.358-9.376,17.519-9.376
			c7.162,0,13.547,3.417,17.519,9.375c4.827,7.241,11.243,12.993,18.703,16.905L258.468,422z M301.138,185.888
			c-0.282,0.985-0.459,1.975-0.535,2.962l-2.279,12.61c-9.507-14.101-25.304-22.516-42.324-22.516
			c-14.866,0-28.8,6.424-38.425,17.445L202.297,120h110.749L301.138,185.888z M347,179.984c-4.597,0.053-9.309-0.303-14.109-1.105
			l12.869-71.21c0.791-4.374-0.399-8.874-3.25-12.285C339.661,91.971,335.445,90,331,90h-58.503c6.849-33.915,36.88-60,73.503-60
			c41.45,0,75,33.544,75,75C421,145.191,388.814,179.504,347,179.984z"/>
	</g>
</g>
<g>
</g>
<g>
</g>
<g>
</g>
<g>
</g>
<g>
</g>
<g>
</g>
<g>
</g>
<g>
</g>
<g>
</g>
<g>
</g>
<g>
</g>
<g>
</g>
<g>
</g>
<g>
</g>
<g>
</g>
</svg>
