<svg id="Layer_1" enable-background="new 0 0 511.951 511.951" height="512" viewBox="0 0 511.951 511.951" width="512" xmlns="http://www.w3.org/2000/svg"><g><path d="m255.976 328.912c-34.719 0-62.965 28.246-62.965 62.965 0 34.72 28.246 62.966 62.965 62.966s62.965-28.246 62.965-62.966c0-34.719-28.246-62.965-62.965-62.965zm0 95.931c-18.177 0-32.965-14.789-32.965-32.966s14.788-32.965 32.965-32.965 32.965 14.788 32.965 32.965-14.788 32.966-32.965 32.966z"/><path d="m255.976 195.737c-62.781 0-121.742 24.386-166.021 68.666-9.851 9.85-15.275 22.947-15.275 36.877s5.425 27.027 15.275 36.876c9.85 9.851 22.946 15.275 36.877 15.275s27.027-5.425 36.876-15.275c50.877-50.877 133.66-50.877 184.537 0 9.85 9.851 22.946 15.275 36.877 15.275 13.93 0 27.026-5.425 36.876-15.275 9.851-9.85 15.275-22.947 15.275-36.877s-5.425-27.027-15.275-36.876c-44.28-44.28-103.241-68.666-166.022-68.666zm144.808 121.206c-4.184 4.184-9.747 6.488-15.664 6.488s-11.479-2.304-15.664-6.489c-62.574-62.572-164.389-62.573-226.963 0-4.184 4.184-9.746 6.488-15.663 6.488s-11.479-2.304-15.664-6.489c-4.184-4.184-6.488-9.746-6.488-15.663s2.304-11.479 6.488-15.664c38.613-38.613 90.041-59.879 144.809-59.879s106.195 21.266 144.809 59.879c4.184 4.184 6.488 9.746 6.488 15.663s-2.304 11.482-6.488 15.666z"/><path d="m496.7 156.819c-64.3-64.3-149.791-99.711-240.725-99.711-90.935 0-176.426 35.412-240.725 99.712-20.334 20.333-20.334 53.419 0 73.753 9.85 9.851 22.947 15.275 36.876 15.275 13.931 0 27.027-5.425 36.876-15.275 92.069-92.067 241.876-92.068 333.944 0 9.85 9.85 22.946 15.275 36.876 15.275 13.93 0 27.027-5.425 36.878-15.275 20.335-20.334 20.334-53.42 0-73.754zm-21.212 52.54c-4.185 4.184-9.748 6.489-15.665 6.488-5.917 0-11.479-2.304-15.663-6.488-103.766-103.764-272.605-103.765-376.371 0-4.184 4.184-9.746 6.488-15.663 6.488s-11.479-2.304-15.664-6.488c-8.637-8.637-8.637-22.69 0-31.327 58.634-58.634 136.591-90.925 219.512-90.925 82.92 0 160.878 32.291 219.512 90.924 8.639 8.638 8.639 22.692.002 31.328z"/></g></svg>